# xmcd
#
# Track frame offsets: 
#        150
#        20235
#        36320
#        53383
#        70697
#        87738
#        104620
#        121427
#        138568
#        155181
#        171088
#        188226
#        204331
#        220535
#        238980
#        256669
#        281647
#        302174
#        318813
#        335291
#
# Disc length: 4689 seconds
#
# Revision: 0
# Processed by: cddbd v1.5.2PL0 Copyright (c) Steve Scherf et al.
# Submitted via: ExactAudioCopyFreeDBPlugin 1.0
#
DISCID=28124f14
DTITLE=Scooter - Pop Collection
DYEAR=2002
DGENRE=Trance
TTITLE0=Fuck The Millenium
TTITLE1=I Was Made For Lovin' You
TTITLE2=I'm Your Pusher
TTITLE3=Posse (I Need You On The Floor)
TTITLE4=How Much Is The Fish
TTITLE5=No Fate
TTITLE6=We Bring The Noise
TTITLE7=Fasterharderscooter
TTITLE8=Rebel Yell
TTITLE9=Fire
TTITLE10=Age Of Love
TTITLE11=Remeday
TTITLE12=I'm Raving
TTITLE13=So What' Cha Want
TTITLE14=Move Your Ass
TTITLE15=Acid Bomb
TTITLE16=Turn Up That Blaster
TTITLE17=Don't Stop
TTITLE18=Break It Up
TTITLE19=I Shot The DJ
EXTD=
EXTT0=
EXTT1=
EXTT2=
EXTT3=
EXTT4=
EXTT5=
EXTT6=
EXTT7=
EXTT8=
EXTT9=
EXTT10=
EXTT11=
EXTT12=
EXTT13=
EXTT14=
EXTT15=
EXTT16=
EXTT17=
EXTT18=
EXTT19=
PLAYORDER=
